HIERARCHY
ROOT Hips
{
	OFFSET 0.00000 0.00000 0.00000
	CHANNELS 6 Xposition Yposition Zposition Zrotation Yrotation Xrotation 
	JOINT RightUpLegDummy
	{
		OFFSET 0 0 0
		CHANNELS 3 Zrotation Yrotation Xrotation
		JOINT RightUpLeg
		{
			OFFSET -3.52197 -3.41223 0.04002
			CHANNELS 3 Zrotation Yrotation Xrotation
			JOINT RightLeg
			{
				OFFSET 0.00006 -17.42390 1.60435
				CHANNELS 3 Zrotation Yrotation Xrotation
				JOINT RightFoot
				{
					OFFSET 0.06153 -16.50078 -1.63901
					CHANNELS 3 Zrotation Yrotation Xrotation
					JOINT RightToes
					{
						OFFSET 0.00298 -1.73825 3.34613
						CHANNELS 3 Zrotation Yrotation Xrotation
						End Site
						{
							OFFSET 0.00480 -0.05416 3.85043
						}
					}
				}
			}
		}
	}
	JOINT SpineDummy
	{
		OFFSET 0 0 0
		CHANNELS 3 Zrotation Yrotation Xrotation
		JOINT Spine
		{
			OFFSET 0.00000 4.68130 0.00000
			CHANNELS 3 Zrotation Yrotation Xrotation
			JOINT Spine1
			{
				OFFSET -0.00000 10.10138 0.05002
				CHANNELS 3 Zrotation Yrotation Xrotation
				JOINT HEadDummy
				{
					OFFSET 0 0 0
					CHANNELS 3 Zrotation Yrotation Xrotation
					JOINT Head
					{
						OFFSET -0.00000 3.43865 0.00438
						CHANNELS 3 Zrotation Yrotation Xrotation
						End Site
						{
							OFFSET -0.11417 5.02924 0.98962
						}
					}
				}
				JOINT LeftShoulder1Dummy
				{
					OFFSET 0 0 0
					CHANNELS 3 Zrotation Yrotation Xrotation
					JOINT LeftShoulder1
					{
						OFFSET 3.53937 -0.14262 -0.08662
						CHANNELS 3 Zrotation Yrotation Xrotation
						JOINT LeftArm
						{
							OFFSET 4.04833 -0.00133 0.12681
							CHANNELS 3 Zrotation Yrotation Xrotation
							JOINT LeftForeArm
							{
								OFFSET 10.33880 -0.01036 -0.55515
								CHANNELS 3 Zrotation Yrotation Xrotation
								JOINT LeftHand
								{
									OFFSET 8.69677 0.07543 0.40060
									CHANNELS 3 Zrotation Yrotation Xrotation
									End Site
									{
										OFFSET 5.28377 -0.21905 0.59205
									}
								}
							}
						}
					}
				}
				JOINT RightShoulderDummy
				{
					OFFSET 0 0 0
					CHANNELS 3 Zrotation Yrotation Xrotation
					JOINT RightShoulder
					{
						OFFSET -3.53937 -0.14262 -0.08660
						CHANNELS 3 Zrotation Yrotation Xrotation
						JOINT RightArm
						{
							OFFSET -4.04833 -0.00133 0.12683
							CHANNELS 3 Zrotation Yrotation Xrotation
							JOINT RightForeArm
							{
								OFFSET -10.37987 -0.01039 -0.55511
								CHANNELS 3 Zrotation Yrotation Xrotation
								JOINT RightHand
								{
									OFFSET -8.67398 0.07538 0.40058
									CHANNELS 3 Zrotation Yrotation Xrotation
									End Site
									{
										OFFSET -5.24810 -0.21916 0.59204
									}
								}
							}
						}
					}
				}
			}
		}
	}
	JOINT LeftUpLegDummy
	{
		OFFSET 0 0 0
		CHANNELS 3 Zrotation Yrotation Xrotation
		JOINT LeftUpLeg
		{
			OFFSET 3.52197 -3.41223 0.04002
			CHANNELS 3 Zrotation Yrotation Xrotation
			JOINT LeftLeg
			{
				OFFSET -0.00012 -17.42399 1.60337
				CHANNELS 3 Zrotation Yrotation Xrotation
				JOINT LeftFoot
				{
					OFFSET -0.09972 -16.50070 -1.63802
					CHANNELS 3 Zrotation Yrotation Xrotation
					JOINT LeftToes
					{
						OFFSET -0.01575 -1.73823 3.34611
						CHANNELS 3 Zrotation Yrotation Xrotation
						End Site
						{
							OFFSET 0.03150 -0.01868 3.85031
						}
					}
				}
			}
		}
	}
}
MOTION
Frames: 14
Frame Time: 0.033333
7.8861 38.3049 79.6641 -175.7580 -51.9765 174.0040 0.0000 0.0000 0.0000 9.9142 0.1787 -13.4648 -0.6644 -3.6813 22.4378 -5.0141 0.0640 -9.1092 0.0000 -0.0000 -0.0000 0.0000 0.0000 0.0000 -2.9524 -4.7254 5.6666 8.1059 -6.3061 0.3635 -0.0000 0.0000 -0.0000 7.8621 -18.4588 -13.3164 -0.0000 0.0000 -0.0000 -34.2445 -3.0792 2.6512 -42.1740 -21.4346 -16.8213 -10.4677 5.1174 48.4544 15.4340 -4.8935 -1.3319 -0.0000 0.0000 -0.0000 34.1174 5.0306 3.4247 41.2115 5.0305 -15.1717 10.8492 5.6429 20.0238 -11.7594 2.0530 -0.7370 0.0000 0.0000 0.0000 3.6348 25.0700 -2.8758 -11.8227 -8.3257 50.6937 -16.5565 1.3665 -2.0252 0.0000 0.0000 -0.0000
7.1446 38.3695 79.5668 -176.7280 -50.4522 173.9750 0.0000 0.0000 0.0000 9.0603 0.0793 -11.6812 -0.3546 -2.5824 22.9007 -6.1958 0.0492 -9.7658 0.0000 -0.0000 -0.0000 0.0000 0.0000 0.0000 -3.0041 -4.1373 6.4047 7.4986 -5.6211 0.3316 -0.0000 0.0000 -0.0000 7.5316 -18.4494 -12.7704 -0.0000 0.0000 -0.0000 -34.2023 -2.9633 2.6018 -41.8861 -21.1827 -16.5876 -10.7374 5.2012 45.3476 16.4349 -4.4512 -1.3622 -0.0000 0.0000 -0.0000 34.0643 5.0202 3.4160 41.4890 6.4166 -14.8976 10.9445 4.4402 22.5576 -11.4896 2.6550 -0.7750 0.0000 0.0000 0.0000 4.0990 24.1784 -5.4040 -1.2155 -0.9816 54.3303 -9.2619 0.6487 -3.5293 0.0000 0.0000 -0.0000
6.3775 38.4361 79.4706 -177.7410 -48.9527 174.1620 0.0000 0.0000 0.0000 8.1411 0.2919 -10.1465 -0.3321 -1.6688 23.3848 -6.9953 0.0141 -10.4834 0.0000 -0.0000 -0.0000 0.0000 0.0000 0.0000 -3.1686 -3.7566 6.9056 6.9096 -5.1426 0.2365 -0.0000 0.0000 -0.0000 7.1221 -18.1722 -11.7131 -0.0000 0.0000 -0.0000 -34.1248 -2.8813 2.5640 -41.6974 -20.4818 -16.3804 -11.0799 5.2866 41.8982 17.5486 -3.9849 -1.3917 -0.0000 0.0000 -0.0000 34.0028 5.0009 3.4030 41.8738 7.5270 -14.9493 10.8284 3.7107 23.8416 -11.0254 2.7026 -0.7468 0.0000 0.0000 0.0000 4.4252 22.6002 -7.9361 6.9624 3.3045 57.2987 -4.4136 0.2811 -4.8359 0.0000 0.0000 -0.0000
5.5726 38.4973 79.3793 -178.6060 -47.6291 174.3590 0.0000 0.0000 0.0000 7.1426 0.5325 -8.7011 -0.3690 -0.7122 23.8701 -7.0288 -0.0418 -11.3471 0.0000 -0.0000 -0.0000 0.0000 0.0000 0.0000 -3.3710 -3.5322 7.2136 6.5019 -4.8636 0.2135 -0.0000 0.0000 -0.0000 6.6912 -17.7820 -10.6600 -0.0000 0.0000 -0.0000 -34.2494 -2.8523 2.5587 -41.3115 -19.9478 -16.2753 -11.3766 5.3334 39.8000 17.9671 -4.0810 -1.4400 -0.0000 0.0000 -0.0000 34.0278 4.9992 3.4045 42.1016 8.0972 -14.7685 10.8537 3.9321 23.2442 -11.0348 2.2835 -0.7106 0.0000 0.0000 0.0000 4.7913 20.3905 -10.3167 11.9059 5.5792 58.5266 -0.5525 0.0622 -6.5762 0.0000 0.0000 -0.0000
4.7412 38.5442 79.2875 -179.4400 -46.5317 174.5390 0.0000 0.0000 0.0000 5.9474 0.6138 -7.2573 -0.2994 0.2584 24.3715 -6.6583 -0.1108 -12.4569 0.0000 -0.0000 -0.0000 0.0000 0.0000 0.0000 -3.7476 -3.4062 7.4639 6.2827 -4.7345 0.3262 -0.0000 0.0000 -0.0000 6.4316 -17.3048 -10.1577 -0.0000 0.0000 -0.0000 -34.3339 -2.8580 2.5602 -40.9497 -19.7649 -16.4193 -11.4186 5.3310 39.8674 17.1186 -4.7079 -1.4573 -0.0000 0.0000 -0.0000 34.1023 5.0107 3.4155 42.1337 8.2850 -14.1642 11.0210 4.7328 21.9786 -11.5185 1.9582 -0.7132 0.0000 0.0000 0.0000 5.3286 17.6532 -12.1695 13.5917 6.7472 57.4478 1.7575 -0.0039 -8.0863 0.0000 0.0000 -0.0000
3.8895 38.5932 79.1852 179.8080 -45.5245 174.7790 0.0000 0.0000 0.0000 4.7104 0.7274 -5.8602 -0.1898 1.0876 24.5924 -6.3754 -0.1730 -13.5466 0.0000 -0.0000 -0.0000 0.0000 0.0000 0.0000 -4.1391 -3.3367 7.5861 6.0475 -4.6610 0.4428 -0.0000 0.0000 -0.0000 6.4050 -16.8427 -10.1205 -0.0000 0.0000 -0.0000 -34.1939 -2.8673 2.5631 -40.8246 -19.6580 -16.7746 -11.2061 5.2945 41.5066 15.4386 -5.3458 -1.3899 -0.0000 0.0000 -0.0000 34.1936 5.0230 3.4283 42.0460 8.2069 -13.1056 11.1626 5.7137 20.9542 -11.9548 1.7548 -0.7214 0.0000 0.0000 0.0000 6.1237 14.7027 -13.4357 13.1588 7.5027 54.1600 1.9627 0.0121 -8.9501 0.0000 0.0000 -0.0000
3.0233 38.6649 79.0730 179.3180 -44.4670 175.1000 0.0000 0.0000 0.0000 3.6511 1.2031 -4.5308 -0.1860 1.6563 24.2485 -6.1656 -0.2110 -14.2797 0.0000 -0.0000 -0.0000 0.0000 0.0000 0.0000 -4.3508 -3.2903 7.4899 5.7836 -4.5904 0.4607 -0.0000 0.0000 -0.0000 6.5207 -16.4912 -10.2237 -0.0000 0.0000 -0.0000 -34.0983 -2.8842 2.5633 -40.7431 -19.3843 -17.1915 -10.9321 5.2490 43.4603 14.0354 -5.4677 -1.2720 -0.0000 0.0000 -0.0000 34.2488 5.0259 3.4342 41.8795 7.9038 -11.5666 11.2564 6.7711 19.8476 -11.9847 1.4291 -0.6923 0.0000 0.0000 0.0000 7.2477 11.8982 -14.2925 12.6584 8.8142 49.1109 1.3828 0.0310 -9.2743 0.0000 0.0000 -0.0000
2.1505 38.7585 78.9590 179.0520 -43.4588 175.4420 0.0000 0.0000 0.0000 2.7099 1.9913 -3.1589 -0.2897 1.9660 23.4033 -5.8071 -0.2264 -14.7335 0.0000 -0.0000 -0.0000 0.0000 0.0000 0.0000 -4.5415 -3.2697 7.2737 5.7047 -4.5742 0.4801 -0.0000 0.0000 -0.0000 6.7169 -16.2166 -10.5078 -0.0000 0.0000 -0.0000 -34.2833 -2.9401 2.5978 -40.5113 -19.0170 -17.6800 -10.6683 5.2113 45.0155 13.5319 -5.0454 -1.1775 -0.0000 0.0000 -0.0000 34.1803 5.0107 3.4222 41.6488 7.5425 -9.9634 11.3389 7.6077 18.5119 -11.4856 1.3041 -0.6510 0.0000 0.0000 0.0000 8.6287 9.2363 -14.6801 12.8059 11.3476 42.6308 1.2531 0.0274 -8.9515 0.0000 0.0000 -0.0000
1.2639 38.8556 78.8456 178.9070 -42.6319 175.6840 0.0000 0.0000 0.0000 1.7602 2.6080 -1.6180 -0.3270 2.3103 22.2579 -5.2901 -0.2333 -15.1772 0.0000 -0.0000 -0.0000 0.0000 0.0000 0.0000 -4.7919 -3.2894 7.0452 5.7612 -4.6309 0.6520 -0.0000 0.0000 -0.0000 6.9945 -15.9803 -11.1575 -0.0000 0.0000 -0.0000 -34.4868 -3.0273 2.6463 -40.3407 -18.7310 -18.3781 -10.2760 5.1792 46.3630 13.6040 -4.5667 -1.1317 -0.0000 0.0000 -0.0000 34.0223 4.9872 3.3992 41.3050 7.2795 -9.5650 11.4549 7.6338 17.9258 -10.5738 1.7538 -0.6354 0.0000 0.0000 0.0000 10.1265 6.3419 -14.3679 12.1940 14.2037 34.8620 1.5220 0.0066 -8.1525 0.0000 0.0000 -0.0000
0.3537 38.9559 78.7283 178.9810 -41.8420 175.7080 0.0000 0.0000 0.0000 0.8783 2.7997 0.1924 -0.1815 2.9976 20.6789 -4.7758 -0.2296 -15.4723 0.0000 -0.0000 -0.0000 0.0000 0.0000 0.0000 -4.8428 -3.3008 6.7783 5.6702 -4.6466 0.9845 -0.0000 0.0000 -0.0000 7.3356 -15.8260 -12.0073 -0.0000 0.0000 -0.0000 -34.3890 -3.0883 2.6645 -40.4775 -18.5074 -19.2338 -9.7177 5.1464 47.7586 13.6064 -4.3946 -1.1130 -0.0000 0.0000 -0.0000 33.9554 4.9827 3.3916 40.7280 7.0555 -10.8149 11.5733 6.7945 18.3294 -9.7507 2.2700 -0.6247 0.0000 0.0000 0.0000 11.7637 3.0045 -13.3882 9.6604 15.4200 26.1181 1.7004 -0.0107 -7.5553 0.0000 0.0000 -0.0000
-0.5751 39.0606 78.6069 179.2740 -40.8537 175.5470 0.0000 0.0000 0.0000 0.0965 2.9461 2.2414 0.0198 3.8244 18.6121 -4.3806 -0.2123 -15.3997 0.0000 -0.0000 -0.0000 0.0000 0.0000 0.0000 -4.7125 -3.2184 6.4705 5.4984 -4.5335 1.3898 -0.0000 0.0000 -0.0000 7.7210 -15.7282 -12.7039 -0.0000 0.0000 -0.0000 -34.1868 -3.0914 2.6522 -40.7244 -18.1576 -19.9443 -9.2424 5.1216 48.8020 13.2326 -4.3978 -1.0815 -0.0000 0.0000 -0.0000 34.0657 5.0061 3.4105 39.8675 6.7793 -12.5642 11.6075 5.6699 18.6778 -9.5728 2.0853 -0.5984 0.0000 0.0000 0.0000 13.2050 0.4710 -12.0577 6.0967 13.1287 17.3166 1.6951 -0.0100 -7.5923 0.0000 0.0000 -0.0000
-1.5334 39.1318 78.4939 179.4500 -39.6841 175.4350 0.0000 0.0000 0.0000 -0.8082 3.6726 4.2136 0.0864 4.2003 16.7118 -3.9273 -0.1948 -15.3654 0.0000 -0.0000 -0.0000 0.0000 0.0000 0.0000 -4.8411 -3.0437 6.1778 5.5640 -4.3610 1.7909 -0.0000 0.0000 -0.0000 8.1280 -15.5519 -13.1167 -0.0000 0.0000 -0.0000 -34.2396 -3.0744 2.6489 -40.7669 -17.5542 -20.3116 -9.0735 5.1166 49.0322 12.6971 -4.3512 -1.0310 -0.0000 0.0000 -0.0000 34.2007 5.0301 3.4317 38.9076 6.5422 -13.9665 11.5659 4.4887 18.8170 -10.0595 1.4712 -0.5817 0.0000 0.0000 0.0000 13.1833 2.0790 -10.7436 3.3638 5.4878 9.9051 1.7935 0.0019 -8.2669 0.0000 0.0000 -0.0000
-2.5567 39.1222 78.4168 179.3040 -38.5011 175.5340 0.0000 0.0000 0.0000 -1.9957 5.4734 5.6931 0.0558 3.6028 15.7852 -3.0136 -0.1772 -15.8706 0.0000 -0.0000 -0.0000 0.0000 0.0000 0.0000 -5.2556 -2.8765 5.9359 5.7597 -4.2105 2.0543 -0.0000 0.0000 -0.0000 8.4212 -15.2760 -13.2397 -0.0000 0.0000 -0.0000 -34.4320 -3.0765 2.6626 -40.7426 -16.7595 -20.4700 -9.0887 5.1243 48.7640 12.6731 -4.2978 -1.0236 -0.0000 0.0000 -0.0000 34.1707 5.0249 3.4271 38.1714 6.3978 -15.0771 11.3846 3.1065 19.3567 -10.7327 1.3040 -0.6078 0.0000 0.0000 0.0000 12.0683 5.7660 -9.8726 1.8484 -3.1441 5.7423 2.3153 0.0114 -9.1761 0.0000 0.0000 -0.0000
-3.6669 39.0165 78.4040 179.0660 -37.3676 175.6860 0.0000 0.0000 0.0000 -3.3263 8.2878 6.5169 0.0553 1.9750 16.1454 -1.5670 -0.1345 -16.6875 0.0000 -0.0000 -0.0000 0.0000 0.0000 0.0000 -5.3947 -2.7888 5.8276 5.6664 -4.0675 2.0489 -0.0000 0.0000 -0.0000 8.4138 -15.0482 -12.9920 -0.0000 0.0000 -0.0000 -34.4342 -3.0724 2.6611 -40.9999 -15.9749 -20.6543 -9.0319 5.1296 48.6054 13.7356 -4.2946 -1.1133 -0.0000 0.0000 -0.0000 34.0250 5.0020 3.4053 37.6971 6.1462 -16.1817 11.0481 1.8072 20.1139 -11.2641 1.5865 -0.6636 0.0000 0.0000 0.0000 11.2978 5.9342 -9.6987 0.9005 -5.6777 5.6309 2.7705 0.0040 -9.2433 0.0000 0.0000 -0.0000
